<svg width="24" height="24" viewBox="0 0 24 24" fill="none" xmlns="http://www.w3.org/2000/svg">
<path d="M19.742 10.7855H11.274V14.266H16.1115C15.9029 15.391 15.2701 16.3425 14.3162 16.98C13.5099 17.5191 12.481 17.8378 11.2717 17.8378C8.93025 17.8378 6.94978 16.2558 6.24197 14.13C6.06385 13.591 5.96072 13.0144 5.96072 12.4214C5.96072 11.8285 6.06385 11.2519 6.24197 10.7128C6.95213 8.5894 8.9326 7.00737 11.274 7.00737C12.5935 7.00737 13.7771 7.46206 14.7099 8.35269L17.2881 5.77222C15.7295 4.31909 13.6974 3.42847 11.274 3.42847C7.76072 3.42847 4.72088 5.44409 3.24197 8.38315C2.6326 9.59722 2.28572 10.9707 2.28572 12.4238C2.28572 13.8769 2.6326 15.248 3.24197 16.4621C4.72088 19.4011 7.76072 21.4167 11.274 21.4167C13.7021 21.4167 15.7365 20.6105 17.2224 19.2371C18.9217 17.6714 19.9037 15.3652 19.9037 12.6253C19.9037 11.9878 19.8474 11.3761 19.742 10.7855Z" fill="white"/>
</svg>
