<svg width="68" height="22" viewBox="0 0 68 22" fill="none" xmlns="http://www.w3.org/2000/svg">
<path d="M15.4353 13.1105C15.2255 13.0056 13.8622 12.3764 13.6525 12.2715C13.4427 12.1667 13.233 12.1667 13.0233 12.3764C12.8135 12.5861 12.3941 13.2154 12.1843 13.4251C12.0794 13.6348 11.8697 13.6348 11.66 13.53C10.9259 13.2154 10.1918 12.7959 9.56259 12.2715C9.03825 11.7472 8.5139 11.118 8.09443 10.4888C7.98956 10.279 8.09443 10.0693 8.1993 9.96442C8.30416 9.85955 8.40903 9.64981 8.61877 9.54494C8.72364 9.44007 8.82851 9.23034 8.82851 9.12547C8.93338 9.0206 8.93338 8.81086 8.82851 8.70599C8.72364 8.60112 8.1993 7.3427 7.98956 6.81835C7.88469 6.08427 7.67495 6.08427 7.46521 6.08427H6.94087C6.73113 6.08427 6.41652 6.29401 6.31166 6.39888C5.68244 7.02809 5.36784 7.76217 5.36784 8.60112C5.4727 9.54494 5.78731 10.4888 6.41652 11.3277C7.57008 13.0056 9.03825 14.3689 10.821 15.2079C11.3454 15.4176 11.7648 15.6273 12.2892 15.7322C12.8135 15.9419 13.3379 15.9419 13.9671 15.8371C14.7012 15.7322 15.3304 15.2079 15.7499 14.5787C15.9596 14.1592 15.9596 13.7397 15.8547 13.3202L15.4353 13.1105M18.057 3.56742C13.9671 -0.522472 7.36034 -0.522472 3.27046 3.56742C-0.0853482 6.92322 -0.714562 12.0618 1.59255 16.1517L0.12439 21.5L5.68244 20.0318C7.25548 20.8708 8.93338 21.2903 10.6113 21.2903C16.3791 21.2903 20.9933 16.676 20.9933 10.9082C21.0982 8.18165 19.9446 5.55993 18.057 3.56742M15.2255 18.2491C13.8622 19.088 12.2892 19.6124 10.6113 19.6124C9.03825 19.6124 7.57008 19.1929 6.20679 18.4588L5.89218 18.2491L2.64124 19.088L3.48019 15.9419L3.27046 15.6273C0.753603 11.4326 2.01203 6.18914 6.10192 3.56742C10.1918 0.945693 15.4353 2.30899 17.9521 6.29401C20.469 10.3839 19.3154 15.7322 15.2255 18.2491Z" fill="white"/>
<path d="M28.9999 19L38.9999 3" stroke="white" stroke-width="2" stroke-linecap="round"/>
<path d="M51.7963 2.24334C51.7188 2.14368 51.621 2.06164 51.5094 2.00267C51.3977 1.94371 51.2748 1.90916 51.1488 1.90134C51.0228 1.89352 50.8966 1.9126 50.7786 1.95731C50.6605 2.00202 50.5533 2.07134 50.4641 2.16066L49.107 3.51906C48.4731 4.1543 48.2395 5.05334 48.5164 5.84213C49.6658 9.10701 51.5355 12.0712 53.9868 14.5149C56.4305 16.9662 59.3947 18.8359 62.6595 19.9853C63.4483 20.2622 64.3474 20.0286 64.9826 19.3947L66.3397 18.0376C66.429 17.9484 66.4983 17.8412 66.5431 17.7231C66.5878 17.6051 66.6068 17.4788 66.599 17.3528C66.5912 17.2268 66.5567 17.104 66.4977 16.9923C66.4387 16.8807 66.3567 16.7829 66.257 16.7054L63.2292 14.3509C63.1227 14.2683 62.9988 14.211 62.867 14.1832C62.7351 14.1555 62.5987 14.158 62.4679 14.1907L59.5936 14.9087C59.21 15.0045 58.808 14.9995 58.4269 14.8939C58.0458 14.7883 57.6985 14.5859 57.4189 14.3062L54.1954 11.0815C53.9156 10.802 53.7129 10.4548 53.6071 10.0737C53.5013 9.69254 53.496 9.29052 53.5917 8.90674L54.3109 6.03244C54.3436 5.90171 54.3462 5.76527 54.3185 5.6334C54.2907 5.50153 54.2334 5.37769 54.1508 5.27121L51.7963 2.24334ZM49.4732 1.17106C49.7029 0.94131 49.9788 0.763052 50.2826 0.64812C50.5865 0.533188 50.9113 0.484213 51.2355 0.504447C51.5598 0.52468 51.876 0.613659 52.1632 0.765475C52.4504 0.917291 52.702 1.12847 52.9014 1.38499L55.2559 4.41154C55.6877 4.96672 55.84 5.68989 55.6693 6.37237L54.9514 9.24667C54.9143 9.39555 54.9163 9.55149 54.9572 9.69936C54.9982 9.84723 55.0767 9.982 55.185 10.0906L58.4098 13.3153C58.5185 13.4239 58.6535 13.5025 58.8016 13.5435C58.9497 13.5844 59.1059 13.5863 59.255 13.5489L62.128 12.831C62.4648 12.7468 62.8163 12.7403 63.156 12.8119C63.4957 12.8835 63.8147 13.0314 64.0888 13.2445L67.1154 15.599C68.2034 16.4456 68.3032 18.0533 67.3293 19.0259L65.9722 20.383C65.001 21.3542 63.5494 21.7807 62.1962 21.3043C58.7329 20.0857 55.5883 18.103 52.9958 15.5032C50.3962 12.9111 48.4135 9.76701 47.1947 6.30412C46.7196 4.95228 47.1462 3.49938 48.1174 2.52815L49.4745 1.17106H49.4732Z" fill="white"/>
</svg>
