<svg width="21" height="22" viewBox="0 0 21 22" fill="none" xmlns="http://www.w3.org/2000/svg">
<path d="M4.79625 2.24334C4.71877 2.14368 4.62097 2.06164 4.50935 2.00267C4.39773 1.94371 4.27484 1.90917 4.14884 1.90134C4.02284 1.89352 3.89662 1.9126 3.77856 1.95731C3.6605 2.00202 3.55331 2.07134 3.4641 2.16066L2.10701 3.51906C1.47308 4.1543 1.23947 5.05334 1.5164 5.84213C2.66578 9.10701 4.53546 12.0712 6.98676 14.5149C9.43048 16.9662 12.3947 18.8359 15.6595 19.9853C16.4483 20.2622 17.3474 20.0286 17.9826 19.3947L19.3397 18.0376C19.429 17.9484 19.4983 17.8412 19.5431 17.7231C19.5878 17.6051 19.6068 17.4788 19.599 17.3528C19.5912 17.2268 19.5567 17.104 19.4977 16.9923C19.4387 16.8807 19.3567 16.7829 19.257 16.7054L16.2292 14.3509C16.1227 14.2683 15.9988 14.211 15.867 14.1832C15.7351 14.1555 15.5987 14.158 15.4679 14.1907L12.5936 14.9087C12.21 15.0045 11.808 14.9995 11.4269 14.8939C11.0458 14.7883 10.6985 14.5859 10.4189 14.3062L7.19544 11.0815C6.91559 10.802 6.71288 10.4548 6.60708 10.0737C6.50128 9.69254 6.49598 9.29052 6.59171 8.90674L7.31094 6.03244C7.34363 5.90171 7.34621 5.76527 7.31847 5.6334C7.29073 5.50153 7.23341 5.37769 7.15082 5.27121L4.79625 2.24334ZM2.47319 1.17106C2.70286 0.94131 2.97878 0.763052 3.28264 0.64812C3.58649 0.533188 3.91131 0.484213 4.23554 0.504447C4.55977 0.52468 4.87599 0.613659 5.16319 0.765475C5.4504 0.917291 5.70202 1.12847 5.90135 1.38499L8.25592 4.41154C8.68772 4.96672 8.83997 5.68989 8.66935 6.37237L7.95143 9.24667C7.91431 9.39555 7.91631 9.55149 7.95725 9.69936C7.99818 9.84723 8.07665 9.982 8.18505 10.0906L11.4098 13.3153C11.5185 13.4239 11.6535 13.5025 11.8016 13.5435C11.9497 13.5844 12.1059 13.5863 12.255 13.5489L15.128 12.831C15.4648 12.7468 15.8163 12.7403 16.156 12.8119C16.4957 12.8835 16.8147 13.0314 17.0888 13.2445L20.1154 15.599C21.2034 16.4456 21.3032 18.0533 20.3293 19.0259L18.9722 20.383C18.001 21.3542 16.5494 21.7807 15.1962 21.3043C11.7329 20.0857 8.58833 18.103 5.99585 15.5032C3.39623 12.9111 1.41351 9.76701 0.194741 6.30412C-0.280372 4.95228 0.14618 3.49938 1.11741 2.52815L2.4745 1.17106H2.47319Z" fill="white"/>
</svg>
