<svg width="21" height="22" viewBox="0 0 21 22" fill="none" xmlns="http://www.w3.org/2000/svg">
<path d="M15.4353 13.1105C15.2255 13.0056 13.8622 12.3764 13.6525 12.2715C13.4427 12.1667 13.233 12.1667 13.0233 12.3764C12.8135 12.5861 12.3941 13.2154 12.1843 13.4251C12.0794 13.6348 11.8697 13.6348 11.66 13.53C10.9259 13.2154 10.1918 12.7959 9.56259 12.2715C9.03825 11.7472 8.5139 11.118 8.09443 10.4888C7.98956 10.279 8.09443 10.0693 8.1993 9.96442C8.30416 9.85955 8.40903 9.64981 8.61877 9.54494C8.72364 9.44007 8.82851 9.23034 8.82851 9.12547C8.93338 9.0206 8.93338 8.81086 8.82851 8.70599C8.72364 8.60112 8.1993 7.3427 7.98956 6.81835C7.88469 6.08427 7.67495 6.08427 7.46521 6.08427H6.94087C6.73113 6.08427 6.41652 6.29401 6.31166 6.39888C5.68244 7.02809 5.36784 7.76217 5.36784 8.60112C5.4727 9.54494 5.78731 10.4888 6.41652 11.3277C7.57008 13.0056 9.03825 14.3689 10.821 15.2079C11.3454 15.4176 11.7648 15.6273 12.2892 15.7322C12.8135 15.9419 13.3379 15.9419 13.9671 15.8371C14.7012 15.7322 15.3304 15.2079 15.7499 14.5787C15.9596 14.1592 15.9596 13.7397 15.8547 13.3202L15.4353 13.1105ZM18.057 3.56742C13.9671 -0.522472 7.36034 -0.522472 3.27046 3.56742C-0.0853482 6.92322 -0.714562 12.0618 1.59255 16.1517L0.12439 21.5L5.68244 20.0318C7.25548 20.8708 8.93338 21.2903 10.6113 21.2903C16.3791 21.2903 20.9933 16.676 20.9933 10.9082C21.0982 8.18165 19.9446 5.55993 18.057 3.56742ZM15.2255 18.2491C13.8622 19.088 12.2892 19.6124 10.6113 19.6124C9.03825 19.6124 7.57008 19.1929 6.20679 18.4588L5.89218 18.2491L2.64124 19.088L3.48019 15.9419L3.27046 15.6273C0.753603 11.4326 2.01203 6.18914 6.10192 3.56742C10.1918 0.945693 15.4353 2.30899 17.9521 6.29401C20.469 10.3839 19.3154 15.7322 15.2255 18.2491Z" fill="white"/>
</svg>
